<?xml version="1.0" encoding="UTF-8" standalone="no"?>
<svg
   width="4399.9995"
   height="1719.7225"
   xml:space="preserve"
   overflow="hidden"
   version="1.1"
   id="svg134"
   sodipodi:docname="fig_multireservoir_subsystems_LOGO.svg"
   inkscape:version="1.3.2 (091e20e, 2023-11-25, custom)"
   xmlns:inkscape="http://www.inkscape.org/namespaces/inkscape"
   xmlns:sodipodi="http://sodipodi.sourceforge.net/DTD/sodipodi-0.dtd"
   xmlns:xlink="http://www.w3.org/1999/xlink"
   xmlns="http://www.w3.org/2000/svg"
   xmlns:svg="http://www.w3.org/2000/svg"><sodipodi:namedview
     id="namedview134"
     pagecolor="#ffffff"
     bordercolor="#000000"
     borderopacity="0.25"
     inkscape:showpageshadow="2"
     inkscape:pageopacity="0.0"
     inkscape:pagecheckerboard="0"
     inkscape:deskcolor="#d1d1d1"
     inkscape:zoom="0.21022727"
     inkscape:cx="1985.9459"
     inkscape:cy="944.21622"
     inkscape:window-width="1920"
     inkscape:window-height="1111"
     inkscape:window-x="-9"
     inkscape:window-y="-9"
     inkscape:window-maximized="1"
     inkscape:current-layer="svg134" /><defs
     id="defs21"><linearGradient
       id="linearGradient135"
       inkscape:collect="always"><stop
         style="stop-color:#0078ff;stop-opacity:1;"
         offset="0"
         id="stop135" /><stop
         style="stop-color:#007800;stop-opacity:0;"
         offset="1"
         id="stop136" /></linearGradient><rect
       x="2620.9729"
       y="85.62162"
       width="3600.865"
       height="723.02704"
       id="rect135" /><clipPath
       id="clip0"><rect
         x="0"
         y="966"
         width="4400"
         height="1511"
         id="rect1" /></clipPath><clipPath
       id="clip1"><rect
         x="0"
         y="1206"
         width="4400"
         height="1272"
         id="rect2" /></clipPath><clipPath
       id="clip2"><rect
         x="0"
         y="1206"
         width="4400"
         height="1272"
         id="rect3" /></clipPath><clipPath
       id="clip3"><rect
         x="0"
         y="1206"
         width="4400"
         height="1272"
         id="rect4" /></clipPath><linearGradient
       x1="1739.4301"
       y1="534.758"
       x2="1777.27"
       y2="534.758"
       gradientUnits="userSpaceOnUse"
       spreadMethod="pad"
       id="fill4"><stop
         offset="0"
         stop-color="#737373"
         id="stop4" /><stop
         offset="0.5"
         stop-color="#B2B2B2"
         id="stop5" /><stop
         offset="1"
         stop-color="#737373"
         id="stop6" /></linearGradient><linearGradient
       x1="796.16199"
       y1="819.12097"
       x2="959.12598"
       y2="819.12097"
       gradientUnits="userSpaceOnUse"
       spreadMethod="pad"
       id="fill5"><stop
         offset="0"
         stop-color="#FFFF00"
         id="stop7" /><stop
         offset="0.5"
         stop-color="#FFFF96"
         id="stop8" /><stop
         offset="1"
         stop-color="#FFFF00"
         id="stop9" /></linearGradient><linearGradient
       x1="810.03699"
       y1="658.92798"
       x2="945.25299"
       y2="658.92798"
       gradientUnits="userSpaceOnUse"
       spreadMethod="pad"
       id="fill6"><stop
         offset="0"
         stop-color="#FFB414"
         id="stop10" /><stop
         offset="0.5"
         stop-color="#FFFB6A"
         id="stop11" /><stop
         offset="1"
         stop-color="#FFB414"
         id="stop12" /></linearGradient><linearGradient
       x1="1739.4301"
       y1="534.758"
       x2="1777.27"
       y2="534.758"
       gradientUnits="userSpaceOnUse"
       spreadMethod="pad"
       id="fill7"><stop
         offset="0"
         stop-color="#737373"
         id="stop13" /><stop
         offset="0.5"
         stop-color="#B2B2B2"
         id="stop14" /><stop
         offset="1"
         stop-color="#737373"
         id="stop15" /></linearGradient><linearGradient
       x1="796.16199"
       y1="819.12097"
       x2="959.12598"
       y2="819.12097"
       gradientUnits="userSpaceOnUse"
       spreadMethod="pad"
       id="fill8"><stop
         offset="0"
         stop-color="#FFFF00"
         id="stop16" /><stop
         offset="0.5"
         stop-color="#FFFF96"
         id="stop17" /><stop
         offset="1"
         stop-color="#FFFF00"
         id="stop18" /></linearGradient><linearGradient
       x1="810.03699"
       y1="658.92798"
       x2="945.25299"
       y2="658.92798"
       gradientUnits="userSpaceOnUse"
       spreadMethod="pad"
       id="fill9"><stop
         offset="0"
         stop-color="#FFB414"
         id="stop19" /><stop
         offset="0.5"
         stop-color="#FFFB6A"
         id="stop20" /><stop
         offset="1"
         stop-color="#FFB414"
         id="stop21" /></linearGradient><linearGradient
       inkscape:collect="always"
       xlink:href="#linearGradient135"
       id="linearGradient136"
       x1="3693.501"
       y1="-73.069855"
       x2="3721.3325"
       y2="916.33557"
       gradientUnits="userSpaceOnUse" /></defs><g
     clip-path="url(#clip0)"
     transform="translate(-3.1158e-4,-756.32443)"
     id="g134"><g
       clip-path="url(#clip1)"
       id="g124"><g
         clip-path="url(#clip2)"
         id="g123"><g
           clip-path="url(#clip3)"
           id="g122"><path
             d="m 3377.51,372.154 h 238.65 v 203.834 h -238.65 z"
             stroke="#000000"
             stroke-width="2.10225"
             stroke-miterlimit="10"
             fill="#dbdbdb"
             transform="matrix(1,0,0,1.00019,317.614,1330.83)"
             id="path21" /><path
             d=""
             stroke="#000000"
             stroke-width="2.70113"
             stroke-linejoin="round"
             stroke-miterlimit="10"
             fill="none"
             transform="matrix(1,0,0,1.00019,2437.85,873.331)"
             id="path22" /><path
             d=""
             stroke="#000000"
             stroke-width="2.70113"
             stroke-linejoin="round"
             stroke-miterlimit="10"
             fill="none"
             transform="matrix(1,0,0,1.00019,2437.85,873.331)"
             id="path23" /><path
             d="m 1656.42,688.465 -11.36,226.571 h 56.29 l -4.57,-91.163 -6.8,-135.408"
             stroke="#000000"
             stroke-width="2.70113"
             stroke-linejoin="round"
             stroke-miterlimit="10"
             fill="none"
             transform="matrix(1,0,0,1.00019,2437.85,873.331)"
             id="path24" /><path
             d=""
             stroke="#000000"
             stroke-width="2.70113"
             stroke-linejoin="round"
             stroke-miterlimit="10"
             fill="none"
             transform="matrix(1,0,0,1.00019,2437.85,873.331)"
             id="path25" /><path
             d="m 1645.06,915.036 53.86,-48.62 h -51.42 l 48.83,-51.46 h -46.25 l 43.86,-47.607 h -41.48 l 39.26,-44.407 h -37.03 l 35.29,-34.48 h -33.56"
             stroke="#000000"
             stroke-width="2.70113"
             stroke-linejoin="round"
             stroke-miterlimit="10"
             fill="none"
             transform="matrix(1,0,0,1.00019,2437.85,873.331)"
             id="path26" /><path
             d=""
             stroke="#000000"
             stroke-width="2.70113"
             stroke-linejoin="round"
             stroke-miterlimit="10"
             fill="none"
             transform="matrix(1,0,0,1.00019,2437.85,873.331)"
             id="path27" /><path
             d=""
             stroke="#000000"
             stroke-width="2.70113"
             stroke-linejoin="round"
             stroke-miterlimit="10"
             fill="none"
             transform="matrix(1,0,0,1.00019,2437.85,873.331)"
             id="path28" /><path
             d="m 1701.35,915.036 -53.85,-48.62 h 51.42 l -48.84,-51.46 h 46.25 l -43.87,-47.607 h 41.48 l -39.25,-44.407 h 37.03 l -35.3,-34.48 h 33.56 l -16.78,-29.496 -16.78,29.496"
             stroke="#000000"
             stroke-width="2.70113"
             stroke-linejoin="round"
             stroke-miterlimit="10"
             fill="none"
             transform="matrix(1,0,0,1.00019,2437.85,873.331)"
             id="path29" /><path
             d="m 1654.69,722.942 h -38.19 l 36.92,25.234"
             stroke="#000000"
             stroke-width="2.70113"
             stroke-linejoin="round"
             stroke-miterlimit="10"
             fill="none"
             transform="matrix(1,0,0,1.00019,2437.85,873.331)"
             id="path30" /><path
             d="m 1656.42,688.465 h -39.92 l 38.19,24.634"
             stroke="#000000"
             stroke-width="2.70113"
             stroke-linejoin="round"
             stroke-miterlimit="10"
             fill="none"
             transform="matrix(1,0,0,1.00019,2437.85,873.331)"
             id="path31" /><path
             d="m 1652.46,767.349 h -35.96 l 34.81,22.973"
             stroke="#000000"
             stroke-width="2.70113"
             stroke-linejoin="round"
             stroke-miterlimit="10"
             fill="none"
             transform="matrix(1,0,0,1.00019,2437.85,873.331)"
             id="path32" /><path
             d="m 1691.67,722.942 h 38.18 l -36.91,25.234"
             stroke="#000000"
             stroke-width="2.70113"
             stroke-linejoin="round"
             stroke-miterlimit="10"
             fill="none"
             transform="matrix(1,0,0,1.00019,2437.85,873.331)"
             id="path33" /><path
             d="m 1689.94,688.465 h 39.91 l -38.18,24.634"
             stroke="#000000"
             stroke-width="2.70113"
             stroke-linejoin="round"
             stroke-miterlimit="10"
             fill="none"
             transform="matrix(1,0,0,1.00019,2437.85,873.331)"
             id="path34" /><path
             d="m 1693.9,767.349 h 35.95 l -34.81,22.973"
             stroke="#000000"
             stroke-width="2.70113"
             stroke-linejoin="round"
             stroke-miterlimit="10"
             fill="none"
             transform="matrix(1,0,0,1.00019,2437.85,873.331)"
             id="path35" /><path
             d="m 3500.05,440.95 c 0,0 44.63,-7.44 124.2,-51.278 79.59,-43.838 111.57,-78.599 111.57,-78.599"
             stroke="#888888"
             stroke-width="2.70139"
             stroke-miterlimit="10"
             fill="none"
             transform="matrix(1,0,0,1.00019,317.614,1330.83)"
             id="path36" /><path
             d="m 3502.09,440.246 c 0,0 46.88,-14.333 126.22,-72.916 79.32,-58.582 108.81,-100.641 108.81,-100.641"
             stroke="#888888"
             stroke-width="2.70139"
             stroke-miterlimit="10"
             fill="none"
             transform="matrix(1,0,0,1.00019,317.614,1330.83)"
             id="path37" /><path
             d="m 3497.7,442.64 c 0,0 49.06,-19.662 129.03,-90.169 79.99,-70.507 107.95,-118.718 107.95,-118.718"
             stroke="#888888"
             stroke-width="2.70139"
             stroke-miterlimit="10"
             fill="none"
             transform="matrix(1,0,0,1.00019,317.614,1330.83)"
             id="path38" /><path
             d="M -317.086,43.6109 H 306.501 V 516.398 h -623.587 z"
             fill="#5b9bd5"
             transform="matrix(1,0,0,1.00019,317.614,1330.83)"
             id="path39" /><path
             d="m 448.962,491.139 2.813,-305.08 -21.105,-0.095 -1.188,-198.8692 -156.428,0.993 -126.03,502.5152 z"
             stroke="#000000"
             stroke-width="2.10225"
             fill="#a6a6a6"
             transform="matrix(1,0,0,1.00019,317.614,1330.83)"
             id="path40" /><path
             d="m 1600.61,441.081 h 878.43 v 343.851 h -878.43 z"
             fill="#5b9bd5"
             transform="matrix(1,0,0,1.00019,317.614,1330.83)"
             id="path41" /><path
             d="m 1265.05,757.279 0.4,-503.511 357.85,1.533 126.03,502.514 z"
             stroke="#000000"
             stroke-width="2.10225"
             fill="#a6a6a6"
             transform="matrix(1,0,0,1.00019,317.614,1330.83)"
             id="path42" /><path
             d="M 90.6768,454.168 H -319.077 v 64.179 H 90.6768"
             fill="#260b00"
             transform="matrix(3.3521,0,0,1,2652.79,1635.68)"
             id="path43" /><path
             d=""
             stroke="#000000"
             stroke-width="2.10225"
             stroke-miterlimit="10"
             fill="none"
             transform="matrix(1,0,0,1.00019,317.614,1330.83)"
             id="path44" /><path
             d=""
             stroke="#000000"
             stroke-width="2.10225"
             stroke-miterlimit="10"
             fill="none"
             transform="matrix(1,0,0,1.00019,317.614,1330.83)"
             id="path45" /><path
             d="m 1323.3,50.1957 h 238.65 V 254.029 H 1323.3 Z"
             stroke="#000000"
             stroke-width="2.10225"
             stroke-miterlimit="10"
             fill="#dbdbdb"
             transform="matrix(1,0,0,1.00019,317.614,1330.83)"
             id="path46" /><path
             d=""
             stroke="#000000"
             stroke-width="2.10225"
             stroke-miterlimit="10"
             fill="none"
             transform="matrix(1,0,0,1.00019,317.614,1330.83)"
             id="path47" /><path
             d="M 90.6768,454.168 H -319.077 v 64.179 H 90.6768"
             fill="#260b00"
             transform="matrix(1.86946,0,0,1,596.502,1367.09)"
             id="path48" /><path
             d=""
             stroke="#000000"
             stroke-width="2.70113"
             stroke-linejoin="round"
             stroke-miterlimit="10"
             fill="none"
             transform="matrix(1,0,0,1.00019,382.43,549.255)"
             id="path49" /><path
             d=""
             stroke="#000000"
             stroke-width="2.70113"
             stroke-linejoin="round"
             stroke-miterlimit="10"
             fill="none"
             transform="matrix(1,0,0,1.00019,382.43,549.255)"
             id="path50" /><path
             d="m 1656.42,688.465 -11.36,226.571 h 56.29 l -4.57,-91.163 -6.8,-135.408"
             stroke="#000000"
             stroke-width="2.70113"
             stroke-linejoin="round"
             stroke-miterlimit="10"
             fill="none"
             transform="matrix(1,0,0,1.00019,382.43,549.255)"
             id="path51" /><path
             d=""
             stroke="#000000"
             stroke-width="2.70113"
             stroke-linejoin="round"
             stroke-miterlimit="10"
             fill="none"
             transform="matrix(1,0,0,1.00019,382.43,549.255)"
             id="path52" /><path
             d="m 1645.06,915.036 53.86,-48.62 h -51.42 l 48.83,-51.46 h -46.25 l 43.86,-47.607 h -41.48 l 39.26,-44.407 h -37.03 l 35.29,-34.48 h -33.56"
             stroke="#000000"
             stroke-width="2.70113"
             stroke-linejoin="round"
             stroke-miterlimit="10"
             fill="none"
             transform="matrix(1,0,0,1.00019,382.43,549.255)"
             id="path53" /><path
             d=""
             stroke="#000000"
             stroke-width="2.70113"
             stroke-linejoin="round"
             stroke-miterlimit="10"
             fill="none"
             transform="matrix(1,0,0,1.00019,382.43,549.255)"
             id="path54" /><path
             d=""
             stroke="#000000"
             stroke-width="2.70113"
             stroke-linejoin="round"
             stroke-miterlimit="10"
             fill="none"
             transform="matrix(1,0,0,1.00019,382.43,549.255)"
             id="path55" /><path
             d="m 1701.35,915.036 -53.85,-48.62 h 51.42 l -48.84,-51.46 h 46.25 l -43.87,-47.607 h 41.48 l -39.25,-44.407 h 37.03 l -35.3,-34.48 h 33.56 l -16.78,-29.496 -16.78,29.496"
             stroke="#000000"
             stroke-width="2.70113"
             stroke-linejoin="round"
             stroke-miterlimit="10"
             fill="none"
             transform="matrix(1,0,0,1.00019,382.43,549.255)"
             id="path56" /><path
             d="m 1654.69,722.942 h -38.19 l 36.92,25.234"
             stroke="#000000"
             stroke-width="2.70113"
             stroke-linejoin="round"
             stroke-miterlimit="10"
             fill="none"
             transform="matrix(1,0,0,1.00019,382.43,549.255)"
             id="path57" /><path
             d="m 1656.42,688.465 h -39.92 l 38.19,24.634"
             stroke="#000000"
             stroke-width="2.70113"
             stroke-linejoin="round"
             stroke-miterlimit="10"
             fill="none"
             transform="matrix(1,0,0,1.00019,382.43,549.255)"
             id="path58" /><path
             d="m 1652.46,767.349 h -35.96 l 34.81,22.973"
             stroke="#000000"
             stroke-width="2.70113"
             stroke-linejoin="round"
             stroke-miterlimit="10"
             fill="none"
             transform="matrix(1,0,0,1.00019,382.43,549.255)"
             id="path59" /><path
             d="m 1691.67,722.942 h 38.18 l -36.91,25.234"
             stroke="#000000"
             stroke-width="2.70113"
             stroke-linejoin="round"
             stroke-miterlimit="10"
             fill="none"
             transform="matrix(1,0,0,1.00019,382.43,549.255)"
             id="path60" /><path
             d="m 1689.94,688.465 h 39.91 l -38.18,24.634"
             stroke="#000000"
             stroke-width="2.70113"
             stroke-linejoin="round"
             stroke-miterlimit="10"
             fill="none"
             transform="matrix(1,0,0,1.00019,382.43,549.255)"
             id="path61" /><path
             d="m 1693.9,767.349 h 35.95 l -34.81,22.973"
             stroke="#000000"
             stroke-width="2.70113"
             stroke-linejoin="round"
             stroke-miterlimit="10"
             fill="none"
             transform="matrix(1,0,0,1.00019,382.43,549.255)"
             id="path62" /><path
             d="m 1794.67,-92.9579 c 0,0 37.71,12.32 116.04,12.3172 78.33,-0.0029 116.03,-12.32 116.03,-12.32"
             stroke="#888888"
             stroke-width="2.70115"
             stroke-miterlimit="10"
             fill="none"
             transform="matrix(1,0,0,1.00019,317.614,1330.83)"
             id="path63" /><path
             d="m 1794.67,-14.0738 c 0,0 37.71,12.31997 116.04,12.31997 78.33,0 116.03,-12.31997 116.03,-12.31997"
             stroke="#888888"
             stroke-width="2.70139"
             stroke-miterlimit="10"
             fill="none"
             transform="matrix(1,0,0,1.00019,317.614,1330.83)"
             id="path64" /><path
             d="m 1444.64,116.938 c 0,0 44.62,-7.44 124.2,-51.2777 79.58,-43.8382 111.56,-78.5986 111.56,-78.5986"
             stroke="#888888"
             stroke-width="2.70139"
             stroke-miterlimit="10"
             fill="none"
             transform="matrix(1,0,0,1.00019,317.614,1330.83)"
             id="path65" /><path
             d="m 1446.67,116.234 c 0,0 46.89,-14.334 126.22,-72.916 79.33,-58.5826 108.8,-100.6425 108.8,-100.6425"
             stroke="#888888"
             stroke-width="2.70139"
             stroke-miterlimit="10"
             fill="none"
             transform="matrix(1,0,0,1.00019,317.614,1330.83)"
             id="path66" /><path
             d="m 1442.28,118.628 c 0,0 49.06,-19.6614 129.04,-90.1686 79.99,-70.5075 107.93,-118.7183 107.93,-118.7183"
             stroke="#888888"
             stroke-width="2.70139"
             stroke-miterlimit="10"
             fill="none"
             transform="matrix(1,0,0,1.00019,317.614,1330.83)"
             id="path67" /><path
             d="m 1794.67,-58.2753 c 0,0 37.71,12.32 116.04,12.3145 78.33,0 116.03,-12.3145 116.03,-12.3145"
             stroke="#888888"
             stroke-width="2.70115"
             stroke-miterlimit="10"
             fill="none"
             transform="matrix(1,0,0,1.00019,317.614,1330.83)"
             id="path68" /><path
             d=""
             stroke="#000000"
             stroke-width="2.10225"
             stroke-miterlimit="10"
             fill="none"
             transform="matrix(1,0,0,1.00019,317.614,1330.83)"
             id="path69" /><path
             d=""
             stroke="#000000"
             stroke-width="2.10225"
             stroke-miterlimit="10"
             fill="none"
             transform="matrix(1,0,0,1.00019,317.614,1330.83)"
             id="path70" /><path
             d="m 1706.95,467.035 -234.69,-0.536 v -72.965 h 40.77 l 2.12,1.745 c 9.5,6.439 20.97,10.175 33.33,10.175 32.89,0 59.58,-26.673 59.58,-59.599 0,-32.925 -26.69,-59.598 -59.58,-59.598 -16.46,0 -31.37,6.664 -42.15,17.469 l -0.36,0.421 h -127.02 l -0.34,-0.421 c -10.78,-10.805 -25.69,-17.469 -42.15,-17.469 -20.56,0 -39.13,16.456 -44.5,24.381 -5.36,7.928 -6.05,13.013 -6.05,13.013 l -151.69,-2.846 -1.9,-0.946 c -33.37,10.717 -30.69,28.66 -9.32,55.596 h 162.14 l 1.89,3.721 c 10.73,15.874 28.87,26.278 49.42,26.278 12.35,0 23.82,-3.734 33.33,-10.175 l 2.1,-1.745 h 40.78 v 132.574 l 294.82,0.759"
             stroke="#000000"
             stroke-width="2.10225"
             stroke-miterlimit="10"
             fill="#ffffff"
             transform="matrix(1,0,0,1.00019,317.614,1330.83)"
             id="path71" /><path
             d="m 1105.71,333.975 c -2.33,15.555 7.7,30.062 17.04,41.833 h 162.15 l 1.88,3.719 c 10.73,15.874 28.87,26.278 49.42,26.278 12.35,0 23.82,-3.734 33.33,-10.175 l 2.1,-1.745 h 40.78 v 132.574 l 294.82,0.759 -0.53,-59.832 -234.69,-0.538 v -72.963 h 40.77 l 2.12,1.745 c 9.5,6.439 20.96,10.175 33.33,10.175 32.89,0 59.57,-26.671 59.57,-59.597 0,-4.196 -0.44,-8.283 -1.26,-12.233"
             stroke="#000000"
             stroke-width="2.10225"
             fill="#5b9bd5"
             transform="matrix(1,0,0,1.00019,317.614,1330.83)"
             id="path72" /><path
             d="m 1739.43,445.832 h 37.84 v 177.85 h -37.84 z"
             stroke="#000000"
             stroke-width="2.10225"
             stroke-miterlimit="10"
             fill="url(#fill4)"
             transform="matrix(1,0,0,1.00019,1.76378,1062.41)"
             id="path73"
             style="fill:url(#fill4)" /><path
             d="m 836.431,786.324 h 14.978 86.151 l 21.568,65.59 H 841.949 796.162 l 21.57,-65.59 z"
             stroke="#000000"
             stroke-width="2.10225"
             stroke-miterlimit="10"
             fill="url(#fill5)"
             transform="matrix(1,0,0,1.00019,882.466,862.145)"
             id="path74"
             style="fill:url(#fill5)" /><path
             d="m 1717.28,585.686 -15.24,65.588"
             stroke="#000000"
             stroke-width="2.10225"
             stroke-miterlimit="10"
             fill="none"
             transform="matrix(1,0,0,1.00019,1.76378,1062.41)"
             id="path75" /><path
             d="m 1737.51,585.364 -7.1,66.225"
             stroke="#000000"
             stroke-width="2.10225"
             stroke-miterlimit="10"
             fill="none"
             transform="matrix(1,0,0,1.00019,1.76378,1062.41)"
             id="path76" /><path
             d="m 1758.47,585.526 v 65.905"
             stroke="#000000"
             stroke-width="2.10225"
             stroke-miterlimit="10"
             fill="none"
             transform="matrix(1,0,0,1.00019,1.76378,1062.41)"
             id="path77" /><path
             d="m 1813.08,651.274 -15.24,-65.588"
             stroke="#000000"
             stroke-width="2.10225"
             stroke-miterlimit="10"
             fill="none"
             transform="matrix(1,0,0,1.00019,1.76378,1062.41)"
             id="path78" /><path
             d="m 1784.36,651.589 -7.09,-66.225"
             stroke="#000000"
             stroke-width="2.10225"
             stroke-miterlimit="10"
             fill="none"
             transform="matrix(1,0,0,1.00019,1.76378,1062.41)"
             id="path79" /><path
             d="m 1129.83,679.142 8.69,-15.167 8.79,15.109 z"
             stroke="#000000"
             stroke-width="2.26367"
             stroke-dasharray="54.3279, 54.3279"
             fill="#ffffff"
             fill-rule="evenodd"
             transform="matrix(1,0,0,1.73471,621.537,301.965)"
             id="path80" /><path
             d="m 867.649,575.799 c 0,-3.824 3.11,-6.938 6.938,-6.938 3.819,0 6.937,3.112 6.937,6.938 0,3.826 -3.109,6.937 -6.937,6.937 -3.828,0 -6.938,-3.111 -6.938,-6.937 z"
             fill="#ffffff"
             transform="matrix(1,0,0,1.00019,885.527,875.435)"
             id="path81" /><path
             d="m 867.649,575.799 c 0,-3.824 3.11,-6.938 6.938,-6.938 3.819,0 6.937,3.112 6.937,6.938 0,3.826 -3.109,6.937 -6.937,6.937 -3.828,0 -6.938,-3.111 -6.938,-6.937 z"
             stroke="#000000"
             stroke-width="2.01816"
             stroke-miterlimit="10"
             fill="none"
             transform="matrix(1,0,0,1.00019,885.527,875.435)"
             id="path82" /><path
             d="m 839.3,605.699 v 18.668 h -29.263 v 87.79 h 135.217 v -87.79 H 915.99 v -18.668 z"
             stroke="#000000"
             stroke-width="2.10225"
             stroke-miterlimit="10"
             fill="url(#fill6)"
             transform="matrix(1,0,0,1.00019,882.466,873.145)"
             id="path83"
             style="fill:url(#fill6)" /><path
             d="M 235.68,94.1588 H 1177.2 V 150.948 H 235.68 Z"
             fill="#5b9bd5"
             fill-rule="evenodd"
             transform="matrix(0.980976,0.194129,-0.194092,0.981164,317.614,1330.83)"
             id="path84" /><path
             d="M 473.625,89.4222 H 1179.29 V 107.844 H 473.625 Z"
             fill="#ffffff"
             fill-rule="evenodd"
             transform="matrix(0.980976,0.194129,-0.194092,0.981164,317.614,1330.83)"
             id="path85" /><path
             d="M 1138.05,320.624 222.468,139.086"
             stroke="#000000"
             stroke-width="2.10225"
             fill="none"
             transform="matrix(1,0,0,1.00019,317.614,1330.83)"
             id="path86" /><path
             d="M 1124.85,375.936 213.056,196.104"
             stroke="#000000"
             stroke-width="2.10225"
             fill="none"
             transform="matrix(1,0,0,1.00019,317.614,1330.83)"
             id="path87" /><path
             d="m 1701.32,468.387 h 28.82 v 57.642 h -28.82 z"
             fill="#5b9bd5"
             fill-rule="evenodd"
             transform="matrix(1,0,0,1.00019,317.614,1330.83)"
             id="path88" /><path
             d="m 446.544,-45.5672 0.675,96.4447"
             stroke="#000000"
             stroke-width="3.49261"
             fill="none"
             transform="matrix(1,0,0,1.00019,317.614,1330.83)"
             id="path89" /><path
             d="m 456.969,58.7405 c 0,5.5718 -4.517,10.0886 -10.088,10.0886 -5.572,0 -10.089,-4.5168 -10.089,-10.0886 0,-5.5717 4.517,-10.0885 10.089,-10.0885 5.571,0 10.088,4.5168 10.088,10.0885 z"
             stroke="#000000"
             stroke-width="3.81299"
             stroke-dasharray="91.5118, 91.5118"
             fill="none"
             fill-rule="evenodd"
             transform="matrix(1,0,0,1.00019,317.614,1330.83)"
             id="path90" /><path
             d="m 440.908,68.2851 h 11.947 V 199.936 h -11.947 z"
             fill-rule="evenodd"
             transform="matrix(1,0,0,1.00019,317.614,1330.83)"
             id="path91" /><path
             d="m 2638.17,763.039 1.54,-222.455 -20.59,-3.128 -0.42,-278.461 -156.42,0.994 -126.03,502.514 z"
             stroke="#000000"
             stroke-width="2.10225"
             fill="#a6a6a6"
             transform="matrix(1,0,0,1.00019,317.614,1330.83)"
             id="path92" /><path
             d="m 3654.82,763.039 h 427.14 v 343.851 h -427.14 z"
             fill="#5b9bd5"
             transform="matrix(1,0,0,1.00019,317.614,1330.83)"
             id="path93" /><path
             d="m 3319.26,1079.24 0.4,-503.515 357.86,1.533 126.03,502.512 z"
             stroke="#000000"
             stroke-width="2.10225"
             fill="#a6a6a6"
             transform="matrix(1,0,0,1.00019,317.614,1330.83)"
             id="path94" /><path
             d="M 90.6768,454.168 H -319.077 v 64.179 H 90.6768"
             fill="#260b00"
             transform="matrix(1.8647,0,0,1,4231.03,1957.7)"
             id="path95" /><path
             d=""
             stroke="#000000"
             stroke-width="2.10225"
             stroke-miterlimit="10"
             fill="none"
             transform="matrix(1,0,0,1.00019,317.614,1330.83)"
             id="path96" /><path
             d=""
             stroke="#000000"
             stroke-width="2.10225"
             stroke-miterlimit="10"
             fill="none"
             transform="matrix(1,0,0,1.00019,317.614,1330.83)"
             id="path97" /><path
             d=""
             stroke="#000000"
             stroke-width="2.10225"
             stroke-miterlimit="10"
             fill="none"
             transform="matrix(1,0,0,1.00019,317.614,1330.83)"
             id="path98" /><path
             d="m 3761.17,788.994 -234.7,-0.536 v -72.965 h 40.77 l 2.12,1.745 c 9.5,6.439 20.96,10.175 33.32,10.175 32.9,0 59.58,-26.674 59.58,-59.599 0,-32.925 -26.68,-59.599 -59.58,-59.599 -16.46,0 -31.36,6.665 -42.15,17.47 l -0.36,0.42 h -127.01 l -0.34,-0.42 c -10.78,-10.805 -25.69,-17.47 -42.15,-17.47 -20.56,0 -39.12,16.455 -44.5,24.382 -5.37,7.926 -6.06,13.011 -6.06,13.011 l -151.68,-2.846 -1.89,-0.944 c -33.38,10.717 -30.69,28.658 -9.33,55.596 h 162.14 l 1.9,3.721 c 10.72,15.874 28.86,26.278 49.42,26.278 12.34,0 23.82,-3.734 33.32,-10.175 l 2.1,-1.745 h 40.79 v 132.574 l 294.82,0.757"
             stroke="#000000"
             stroke-width="2.10225"
             stroke-miterlimit="10"
             fill="#ffffff"
             transform="matrix(1,0,0,1.00019,317.614,1330.83)"
             id="path99" /><path
             d="m 3159.93,655.934 c -2.34,15.553 7.69,30.06 17.03,41.831 h 162.14 l 1.89,3.721 c 10.73,15.874 28.87,26.278 49.43,26.278 12.34,0 23.82,-3.734 33.32,-10.175 l 2.1,-1.745 h 40.78 v 132.572 l 294.82,0.759 -0.52,-59.83 -234.7,-0.538 v -72.963 h 40.77 l 2.12,1.745 c 9.5,6.439 20.98,10.175 33.34,10.175 32.88,0 59.58,-26.673 59.58,-59.599 0,-4.194 -0.46,-8.283 -1.28,-12.231"
             stroke="#000000"
             stroke-width="2.10225"
             fill="#5b9bd5"
             transform="matrix(1,0,0,1.00019,317.614,1330.83)"
             id="path100" /><path
             d="m 1739.43,445.832 h 37.84 v 177.85 h -37.84 z"
             stroke="#000000"
             stroke-width="2.10225"
             stroke-miterlimit="10"
             fill="url(#fill7)"
             transform="matrix(1,0,0,1.00019,2055.98,1384.43)"
             id="path101"
             style="fill:url(#fill7)" /><path
             d="m 937.56,786.324 21.568,65.59 H 841.949 796.162 l 21.57,-65.59 h 18.699 14.978 z"
             stroke="#000000"
             stroke-width="2.10225"
             stroke-miterlimit="10"
             fill="url(#fill8)"
             transform="matrix(1,0,0,1.00019,2936.68,1184.16)"
             id="path102"
             style="fill:url(#fill8)" /><path
             d="m 1717.28,585.686 -15.24,65.588"
             stroke="#000000"
             stroke-width="2.10225"
             stroke-miterlimit="10"
             fill="none"
             transform="matrix(1,0,0,1.00019,2055.98,1384.43)"
             id="path103" /><path
             d="m 1737.51,585.364 -7.1,66.225"
             stroke="#000000"
             stroke-width="2.10225"
             stroke-miterlimit="10"
             fill="none"
             transform="matrix(1,0,0,1.00019,2055.98,1384.43)"
             id="path104" /><path
             d="m 1758.47,585.526 v 65.905"
             stroke="#000000"
             stroke-width="2.10225"
             stroke-miterlimit="10"
             fill="none"
             transform="matrix(1,0,0,1.00019,2055.98,1384.43)"
             id="path105" /><path
             d="m 1813.08,651.274 -15.24,-65.588"
             stroke="#000000"
             stroke-width="2.10225"
             stroke-miterlimit="10"
             fill="none"
             transform="matrix(1,0,0,1.00019,2055.98,1384.43)"
             id="path106" /><path
             d="m 1784.36,651.589 -7.09,-66.225"
             stroke="#000000"
             stroke-width="2.10225"
             stroke-miterlimit="10"
             fill="none"
             transform="matrix(1,0,0,1.00019,2055.98,1384.43)"
             id="path107" /><path
             d="m 1129.83,679.142 8.69,-15.167 8.79,15.109 z"
             stroke="#000000"
             stroke-width="2.26367"
             stroke-dasharray="54.3279, 54.3279"
             fill="#ffffff"
             fill-rule="evenodd"
             transform="matrix(1,0,0,1.73471,2675.75,623.984)"
             id="path108" /><path
             d="m 867.649,575.799 c 0,-3.824 3.11,-6.938 6.938,-6.938 3.819,0 6.937,3.112 6.937,6.938 0,3.826 -3.109,6.937 -6.937,6.937 -3.828,0 -6.938,-3.111 -6.938,-6.937 z"
             fill="#ffffff"
             transform="matrix(1,0,0,1.00019,2939.74,1197.45)"
             id="path109" /><path
             d="m 867.649,575.799 c 0,-3.824 3.11,-6.938 6.938,-6.938 3.819,0 6.937,3.112 6.937,6.938 0,3.826 -3.109,6.937 -6.937,6.937 -3.828,0 -6.938,-3.111 -6.938,-6.937 z"
             stroke="#000000"
             stroke-width="2.01816"
             stroke-miterlimit="10"
             fill="none"
             transform="matrix(1,0,0,1.00019,2939.74,1197.45)"
             id="path110" /><path
             d="m 839.3,624.367 h -29.263 v 87.79 h 135.217 v -87.79 H 915.99 V 605.699 H 839.3 Z"
             stroke="#000000"
             stroke-width="2.10225"
             stroke-miterlimit="10"
             fill="url(#fill9)"
             transform="matrix(1,0,0,1.00019,2936.68,1195.16)"
             id="path111"
             style="fill:url(#fill9)" /><path
             d="m 2313.33,11.2854 h 941.52 v 56.7894 h -941.52 z"
             fill="#5b9bd5"
             fill-rule="evenodd"
             transform="matrix(0.980976,0.194129,-0.194092,0.981164,317.614,1330.83)"
             id="path112" /><path
             d="m 2687.91,11.1676 h 569.02 v 13.8029 h -569.02 z"
             fill="#ffffff"
             fill-rule="evenodd"
             transform="matrix(0.980976,0.194129,-0.194092,0.981164,317.614,1330.83)"
             id="path113" /><path
             d="M 3192.26,642.581 2391.98,484.641"
             stroke="#000000"
             stroke-width="2.10225"
             fill="none"
             transform="matrix(1,0,0,1.00019,317.614,1330.83)"
             id="path114" /><path
             d="M 3179.06,697.893 2383.65,540.586"
             stroke="#000000"
             stroke-width="2.10225"
             fill="none"
             transform="matrix(1,0,0,1.00019,317.614,1330.83)"
             id="path115" /><path
             d="m 3755.54,790.343 h 28.82 v 57.642 h -28.82 z"
             fill="#5b9bd5"
             fill-rule="evenodd"
             transform="matrix(1,0,0,1.00019,317.614,1330.83)"
             id="path116" /><path
             d="m 2631.97,301.504 0.67,96.445"
             stroke="#000000"
             stroke-width="3.49261"
             fill="none"
             transform="matrix(1,0,0,1.00019,317.614,1330.83)"
             id="path117" /><path
             d="m 2642.39,405.813 c 0,5.572 -4.51,10.089 -10.08,10.089 -5.58,0 -10.09,-4.517 -10.09,-10.089 0,-5.571 4.51,-10.088 10.09,-10.088 5.57,0 10.08,4.517 10.08,10.088 z"
             stroke="#000000"
             stroke-width="3.81299"
             stroke-dasharray="91.5118, 91.5118"
             fill="none"
             fill-rule="evenodd"
             transform="matrix(1,0,0,1.00019,317.614,1330.83)"
             id="path118" /><path
             d="m 2626.34,415.357 h 11.94 v 131.651 h -11.94 z"
             fill-rule="evenodd"
             transform="matrix(1,0,0,1.00019,317.614,1330.83)"
             id="path119" /><path
             d="m 3849.8,231.712 c 0,0 37.69,12.321 116.04,12.317 78.33,-0.002 116.03,-12.319 116.03,-12.319"
             stroke="#888888"
             stroke-width="2.70115"
             stroke-miterlimit="10"
             fill="none"
             transform="matrix(1,0,0,1.00019,317.614,1330.83)"
             id="path120" /><path
             d="m 3849.8,310.596 c 0,0 37.69,12.319 116.04,12.319 78.33,0 116.03,-12.319 116.03,-12.319"
             stroke="#888888"
             stroke-width="2.70139"
             stroke-miterlimit="10"
             fill="none"
             transform="matrix(1,0,0,1.00019,317.614,1330.83)"
             id="path121" /><path
             d="m 3849.8,266.394 c 0,0 37.69,12.322 116.04,12.315 78.33,0 116.03,-12.315 116.03,-12.315"
             stroke="#888888"
             stroke-width="2.70115"
             stroke-miterlimit="10"
             fill="none"
             transform="matrix(1,0,0,1.00019,317.614,1330.83)"
             id="path122" /></g></g></g><text
       font-family="Bahnschrift, Bahnschrift_MSFontService, sans-serif"
       font-weight="400"
       font-size="92px"
       transform="translate(3502.71,1436)"
       id="text128" /></g><text
     xml:space="preserve"
     id="text135"
     style="font-size:466.667px;white-space:pre;shape-inside:url(#rect135);fill:url(#linearGradient136);stroke-width:2.33333;stroke-dasharray:56, 2.33333"
     transform="translate(-2545.8993,-186.00937)"><tspan
       x="2620.9727"
       y="514.59033"
       id="tspan2"><tspan
         dx="0 0 0 0 0 0 0 0 0 0 -0.00015258789 0.00012207031"
         style="font-family:'Bauhaus 93';-inkscape-font-specification:'Bauhaus 93, '"
         id="tspan1">Flowing Basin</tspan></tspan></text></svg>
